<svg width="158" height="97" viewBox="0 0 158 97" fill="none" xmlns="http://www.w3.org/2000/svg">
<path d="M55.1818 25.1818C54.6364 20.5758 52.4242 17 48.5455 14.4545C44.6667 11.9091 39.9091 10.6364 34.2727 10.6364C30.1515 10.6364 26.5455 11.303 23.4545 12.6364C20.3939 13.9697 18 15.803 16.2727 18.1364C14.5758 20.4697 13.7273 23.1212 13.7273 26.0909C13.7273 28.5758 14.3182 30.7121 15.5 32.5C16.7121 34.2576 18.2576 35.7273 20.1364 36.9091C22.0152 38.0606 23.9848 39.0151 26.0455 39.7727C28.1061 40.5 30 41.0909 31.7273 41.5455L41.1818 44.0909C43.6061 44.7273 46.303 45.6061 49.2727 46.7273C52.2727 47.8485 55.1364 49.3788 57.8636 51.3182C60.6212 53.2273 62.8939 55.6818 64.6818 58.6818C66.4697 61.6818 67.3636 65.3636 67.3636 69.7273C67.3636 74.7576 66.0455 79.303 63.4091 83.3636C60.803 87.4242 56.9848 90.6515 51.9545 93.0455C46.9545 95.4394 40.8788 96.6364 33.7273 96.6364C27.0606 96.6364 21.2879 95.5606 16.4091 93.4091C11.5606 91.2576 7.74242 88.2576 4.95455 84.4091C2.19697 80.5606 0.636364 76.0909 0.272727 71H11.9091C12.2121 74.5152 13.3939 77.4242 15.4545 79.7273C17.5455 82 20.1818 83.697 23.3636 84.8182C26.5758 85.9091 30.0303 86.4545 33.7273 86.4545C38.0303 86.4545 41.8939 85.7576 45.3182 84.3636C48.7424 82.9394 51.4545 80.9697 53.4545 78.4545C55.4545 75.9091 56.4545 72.9394 56.4545 69.5455C56.4545 66.4545 55.5909 63.9394 53.8636 62C52.1364 60.0606 49.8636 58.4848 47.0455 57.2727C44.2273 56.0606 41.1818 55 37.9091 54.0909L26.4545 50.8182C19.1818 48.7273 13.4242 45.7424 9.18182 41.8636C4.93939 37.9848 2.81818 32.9091 2.81818 26.6364C2.81818 21.4242 4.22727 16.8788 7.04545 13C9.89394 9.09091 13.7121 6.0606 18.5 3.90909C23.3182 1.72727 28.697 0.63636 34.6364 0.63636C40.6364 0.63636 45.9697 1.71212 50.6364 3.86363C55.303 5.98484 59 8.89393 61.7273 12.5909C64.4849 16.2879 65.9394 20.4848 66.0909 25.1818H55.1818ZM89.7159 95H77.8977L112.08 1.90909H123.716L157.898 95H146.08L118.261 16.6364H117.534L89.7159 95ZM94.0795 58.6364H141.716V68.6364H94.0795V58.6364Z" fill="#0EA5E9"/>
</svg>
